<?xml version="1.0" encoding="UTF-8"?>
<svg id="Laag_2" data-name="Laag 2" xmlns="http://www.w3.org/2000/svg" viewBox="0 0 31.94 26.21">
  <g id="soltana">
    <g>
      <path d="M11.42,20.89c.14-.45.44-.53.5-.98.02-.11-.08-.24-.05-.4.07-.29.53-.55.41-.97-.03-.11-.71-.78-.86-.98-.32-.44-.54-1.39-1.25-1.25-.22.04-1.44.77-1.66.95-.38.31-.43.45-1.03,1.1-.64.68-.81.79-1.13,1.14-1.3,1.39-1.68,2.91-1.8,3.46-.2.87-.14,1.32.07,1.66.05.08.27.44.7.57.13.04.33.08.61.03,1.08-.2,2.76-1.6,3.92-2.56.22-.18.68-.56,1.16-1.17.18-.24.32-.44.41-.59M11.62,21.96c-.15-.03-.28.3-.61.66-.43.47-.47.52-1.52,1.41-.86.72-1.09,1.02-1.86,1.52-.14.09-.29.17-.48.26-.93.45-1.84.61-2.76.01-.1-.06-.71-.74-.73-.79-.02-.05-.11-.87-.11-.99,0,0,.26-2.16,2.02-5,0-.01.09-.14.19-.32.06-.1.11-.19.16-.25-.25.09-.57.19-.95.28,0,0-.44.1-.87.14-1.04.11-2.01.17-2.86-.34-.36-.22-1.03-1.25-1.14-1.67-.12-.48-.1-1.53-.06-2.05.22-3.11,2.9-6.17,5.94-6.76.41-.08.82-.14,1.24-.11.04-.42-.37-.56-.57-.78-1.01-1.14-2.59-2.56-2.41-4.25.11-1.02,1.35-1.7,2.2-2.09,1.92-.89,3.37-.88,5.42-.18,1.13.39,1.35.93,1.96.81.7-.14.7-.72,1.5-1.15,1.35-.72,3.37-.06,4.22.85.6.64.8,1.03.8,1.03.02.04.22.44.56.9.14.19.16.23.2.22.28-.07,1.39-1.33,1.81-1.61,1.12-.76,2.87-1.65,4.23-1.53,1.03.09,2.53.97,2.82,2.01.71,2.49-.89,4.97-1.2,5.38-.88,1.14-2.1,1.9-2.65,2.24-.29.18-.68.37-1.45.75-.58.29-.92.42-1.39.47-.21.02-.5-.14-.64-.04-.02,1.2-.3,2.12-.57,2.75-.13.31-.25.54-.37.76-.7,1.3-1.2,1.81-1.57,2.32-.13.18-.42.43-.87.71,0,0-.02.05-.02.12,0,.13.78,1.74.91,1.98.12.22.43.73.57.91.35.43,2.6,1.7,3.15,1.84,1.02.26,1.38.1,2.02-.7.76-.94,1.34-1.91,1.65-3.02.19-.67.24-1.01.23-1.31-.02-.55-.18-.98-.3-1.24-.2-.9-.84-1.23-1.71-1.32-.6-.06-1.03.21-1.64-.09-.11-.05-.08-.23-.29-.26-.35-.06-.66.24-.97-.08-.27-.28.07-.65.36-.7.92-.18,2.2.26,3.16.18,1.8-.15,3.02-1.53,4.21-2.97.27-.33.56-.73.43-1.06-.14-.38-.76-.49-1.42-.6-1.2-.2-1.98,0-2.04-.21-.04-.15.31-.39.55-.51.59-.29,1.18-.17,1.93-.01.6.13.91.29,1.01.33.88.41,1.04.85.76,1.81-.15.53-1.23,1.66-1.68,2.09-.55.52-1.42,1.09-2.09,1.42-.31.15-1.04.15-.5.73.1.11.24.06.31.12.04.04.39.42.42.47.07.13.4,1.44.41,1.61.02.51-.17,1.36-.26,1.87-.05.12-.12.31-.22.54-.23.51-.46.93-.91,1.74-.2.35-.31.54-.49.78-.21.29-.38.46-.45.54-.07.07-.24.24-.46.39,0,0-.48.39-1.1.48-.93.13-1.8-.33-2.59-.74-.39-.21-1.92-1.1-2.15-1.36-.16-.18-.21-.78-.43-.53-.09.1.02,1.44-.09,1.84-.15.56-1.75,2.76-2.25,3.1-.83.55-2.09.65-3,.31-.61-.23-1.1-.52-1.48-.93-.13-.14-.5-.56-.7-1.19-.11-.36-.22-.96-.27-1.22-.09-.47-.11-.68-.21-.7ZM17.82,17.79c.63-.42,1.05-.85,1.22-1.02.94-.98,1.77-1.82,2.31-3.22.35-.92.64-1.68.39-2.58-.26-.93-1.02-1.74-1.41-1.7-.12.01-.2.08-.2.08-.16.15-.08.46-.13.65-.14.46-.42,1-.77,1.34-.67.64-.09-.81-.09-.96,0-.23-.15-1.04-.31-1.19-.17-.16-.53-.11-.74-.23-.19-.1-.21-.31-.38-.42-.06-.04-1.27-.48-1.34-.49-.35-.05-1.73.38-2.05.57-.44.26-2.24,1.97-2.5,2.41-.9,1.56-.86,2.87-.15,4.52.48,1.12,1.26,2.03,2.33,2.46.37.15.76.19,1.32.26.68.09,1.04.14,1.49.02.37-.1.62-.26,1-.51ZM17.64,18.61c-.61.33-.72.4-.9.48-.22.1-.54.21-.98.27-.56.05-1.97-.44-2.4-.22-.02.01-.29.3-.32.34-.61.81-.5,2.32-.27,3.32.27,1.2.73,2.05,1.97,2.41,1.21.34,2.26-.5,2.61-.76.69-.52,1.03-1.13,1.2-1.44.09-.16.84-1.59.5-3.33-.05-.25-.25-1.29-.71-1.36-.08-.01-.14,0-.68.3ZM21.23,5.82c.04.81.18,1.02.09,1.48-.09.47-.69.77-1.05.27-.19-.26-.27-1.39-.27-1.76,0-.42.16-.91.18-1.31.04-1.15-.75-2.41-1.62-3.11-.38-.31-1.42-.74-1.91-.68-.18.02-1.69.71-1.82.82-.08.07-.17.6-.15.69.03.17.56.49.73.66.5.53.94.93,1.57,2.02.23.4.51.96.75,1.66,0,.04,0,.08,0,.12,0,.3.16.52.26.64.14.05.38.14.65.28.33.17.56.32.63.36.92.59,2.08.32,2.71,1.13.23.29.3.78.61,1.05.23-.32.43-.59.8-.78.77-.39,1.54-.56,2.35-.72,1.09-.21,1.5-.55,2.14-1.45,1.09-1.53,1.8-3.13.99-4.99-.07-.16-.59-.87-.72-.95-.09-.05-1.09-.21-1.27-.22-.63-.05-1.17-.06-1.7.31-.75.52-1.55.83-2.28,1.4-.25.2-.45.38-.63.57-.38.41-.7.71-.89,1.17-.2.5-.18.95-.17,1.33ZM13.63,3.29c0-.2-.03-.5-.22-.79-.24-.37-.53-.4-1.49-.87-.94-.46-.96-.66-2.15-.74-1.28-.09-2.61.4-3.69,1.08-.11.07-.67.52-.71.6-.35.61.17,1.74.57,2.24.67.85,1.39,1.7,2.29,2.35.75.53,1.46.4,2.31.58.44.09,1.31.54,1.61.58,1.24.15,1.52-.64,2.5-1.01.34-.13.69-.19,1.05-.22-.34-.49-.63-.88-.83-1.14-.65-.87-.95-1.18-1.12-1.77-.11-.36-.13-.67-.13-.88ZM14.68,3.2s-.06.09-.09.16c-.07.18-.03.36.03.57.13.41.32.7.33.71.43.67.8,1.24,1.52,1.56.13.06.23.09.31.12,0-.11-.03-.29-.11-.48-.08-.17-.16-.26-.4-.56-.08-.11-.21-.27-.37-.47-.18-.26-.37-.51-.57-.77-.22-.29-.43-.57-.64-.84ZM10.28,15.32c.05-.45-.22-.8-.27-1.18-.2-1.66.42-2.7,1.28-3.98.19-.28.69-.62.55-1-.13-.36-2.16-.43-2.57-.5-.07-.01-.15-.04-.28-.06-.59-.1-1.08-.05-1.52.03-1.1.19-1.85.32-2.8.79-.4.2-1.03.52-1.67,1.13-1.16,1.1-1.62,2.34-1.82,3.18-.11.44-.32,1.84-.29,2.25.04.6.76,1.81,1.37,1.97.57.14,2.47.09,2.99-.15.21-.09.37-.21.63-.33,1.32-.61,2.68-1.49,3.97-2.07.13-.06.27-.08.42-.07Z"/>
      <path d="M14.49,15.59c.86-.24.96.59,1.6.78,1-.54,1.62-1.54,2.35-2.4.34-.11.76.18.77.55,0,.24-.41.39-.56.55-.93,1.02-2.04,2.97-3.68,1.76-.55-.41-.3-.65-.48-1.23Z"/>
      <path d="M18.93,13.02s-.43.29-.45.3c-.86.07-.82-.68-.8-1.33.42-.31.59.17.86.29.16.07.47-.04.64.15.11.16-.14.48-.25.59Z"/>
      <path d="M15.78,12.45c.26.45-.62.56-.89.51-.31-.06-.85-.7-.43-.95.21-.07.7.03.9.13.02.01.41.29.43.32Z"/>
    </g>
  </g>
</svg>