<?xml version="1.0" encoding="UTF-8"?>
<svg id="Laag_2" data-name="Laag 2" xmlns="http://www.w3.org/2000/svg" viewBox="0 0 1464.72 1211.35">
  <g id="wit">
    <g>
      <path d="M575.03,196.65c40.37-14.8,82.36-31.45,118.92-54.3,26.67-16.67,72.75-55.43,104.19-53.17,31.68,2.28,32.82,23.21,40.32,47.01,12.71,40.29,32.33,86.43,51.46,124.17,2.92,5.77,6.71,11.29,9.96,16.89,18.37-23.1,36.98-46.09,56.61-68.13,25.12-28.2,59.73-66.86,90.4-88.1,10.57-7.32,24.52-16.14,26.25,4.11,2.25,26.34-.22,59.59-.95,86.45-1.33,48.97-7.29,101.9,2.18,150.33,3.21,16.43,3.98,16.5,19.85,21.41,36.74,11.39,74.95,17.04,112.78,29.25,67.64,21.83,133.44,48.88,201.26,70.33,9.99,3.16,39.14,9.38,45.35,15.11,12.12,11.18-14.95,23-23.16,26.72-23.19,10.53-48.95,16.19-72.82,25.07-41.7,15.52-81.02,39.01-121.04,58.42-4.33,2.1-23.75,9.7-25.37,12.07-3.14,4.64,8.67,8.98,12.56,10.6,26.65,11.06,73.74,15.07,92.97,35.63,16.67,17.83-16.34,23.45-28.35,25.19-60,8.71-121.93,4.92-182.2,10.7-41.69,4-81.89,13.47-122.97,19.06-9,1.23-19.83-2.59-12.65,11.94,2.81,5.67,19.86,27.22,24.74,30.92,5.36,4.06,17,7.39,23.7,10.85,39.34,20.34,65.92,53.7,89.01,90.45,5.69,9.06,3.56,10.27,5.05,18.93,1.69,9.79,8.15,24.13,10.56,35.52,23.71,111.95-21.85,248.88-140.04,283.55-138.72,40.69-243.63-86.48-249.53-214.51l-17.52-29.5c-5.65,14.21-11.21,27.61-20.68,39.78-26.39,33.94-69.53,45.38-110.81,48.5-10.11.76-23.87-.51-33.53,1.02-2.91.46-5.54,2.98-7.1,5.38-6.93,10.74-4.86,38.67-1.13,50.72,9.3,30.07,45.99,40.21,37.18,77.46-7.75,32.81-42.48,25.35-67.41,24.74-22.32-.55-43.88-.55-66.25-.05-26.85.61-65.81,8.62-70.23-29.5s39.35-47.04,40.98-84.2l.05-221.71c-2.72-34.68-35.18-40.54-37.5-67.11-1.5-17.18,3.38-32.6,20.49-39.09,19.4-7.35,60.6-.72,82.68.22,31.17,1.33,57.57-.9,88.34-2.91,9.67-.63,19.58-.04,29.26-.98l-57.28-96.73c-7.31-1.16-14.26,2-20.79,4.75-10.98,4.62-23.22,12.15-33.89,17.93-50.87,27.59-103.4,59.3-151.87,90.94-41.64,27.18-91.33,70.85-137.08,87.49-47.38,17.23-38.43-16.72-29.28-47.52,19.46-65.49,53.83-127.31,77.05-191.66,5.28-14.62,12.56-33.7,15.65-48.65,2.25-10.88,4.41-20.67-4.14-29.11-15.43-15.23-45.4-32.16-64.39-44.05-55.32-34.64-112.84-66.55-163.52-108.07-5.75-4.71-29.79-24.85-31.02-30.41-1.1-4.99.14-8.65,5.3-9.65,5.54-1.07,10.13-.13,15.1-.18,81.91-.84,164.27-18.61,244.64-32.79,75.22-76.77,151.56-152.35,228.55-227.31,26.77-26.06,51.59-54.18,81.17-77.18,3.29-2.56,25.74-19.43,27.4-19.68,2.98-.45,4.8,9.94,5.01,12.02,2.37,23.98-12.76,69.6-17.82,95.19-5.85,29.61-9.98,59.62-14.69,89.43ZM552.96,217.76c11.18-32.34,13.52-66.53,19.49-99.98,4.08-22.85,10.61-45.7,13.93-68.6,1.11-7.63,2.49-15.71,1.6-23.35-42.32,38.15-83.83,77.44-123.35,118.49-64.32,66.81-124.5,137.74-194.43,199.04-7.6,3.93-9.55-1.88-14.72-3.26-10.39-2.77-63.03,10.22-77.59,12.68-50.07,8.48-101.09,13.71-151.81,16.63,33.95,34.01,74.25,62.65,115.24,87.72,40.32,24.66,99.51,52.62,131.92,85.93,13.1,13.46,10.3,25.26,5.71,42.27-21.27,78.81-64.4,160.04-92.37,237.77-1.58,4.39-11.43,28.81-8.32,31.05.96.69,3.29.86,4.56.79,27.02-1.48,92.58-53.65,117.8-70.39,48.09-31.91,99.91-64.1,149.95-92.86,21.57-12.4,51.2-30.79,73.89-39.36,15.24-5.75,23.78-4.42,33.68,7.93,24.37,30.39,42.64,70.49,63.41,103.58,9.37,2.37,18.76,4.28,27.86,7.65,6.5,2.41,12.5,5.63,18.69,8.65l-46.62-302.41-65.66-11.41-49.68,164.82-2.42,2.38-44.83,21.86,120.91-425.39,47.02-22.78,94.88,662.8c3.32,23.28,1.92,46.6-.77,69.85l11.48,22.62c2.61,1.96,1.81-12.67,1.92-13.9,3.96-43.84.93-85.53-.93-129.61-7.86-186.47-17.43-372.78-25.03-559.42-.94-22.97-2.25-46.09-2.89-69.09-.08-3.05-.45-16.23.51-17.81l24.17-12.32,152.92,404.84-23.99-302.29,14.36,29.29,19.75,24.39,43.61,438.64,38.39,3.82c-9.47-12.71-50.36-42.94-17.28-51.34,11.47-2.92,26.12-4.45,38.05-6.09,69.3-9.52,139.38-11.68,209.07-17.42,30.58-2.52,61.14-5.97,91.66-9.11,2.29-1.4,2.21-3.45,1.03-5.6-25.1-9.81-51.95-15.75-77.58-24.38-9.11-3.07-20.93-6.7-29.36-10.95-6.14-3.1-10.84-6.78-6.82-14.23,58.44-33.43,119.18-66.64,182.55-90,17.07-6.29,34.89-10.27,51.6-16.54,2.72-1.02,10.02-3.18,10.65-5.72l-.05-2.93-2.23-1.68c-91.81-25.42-178.67-66.02-270.66-91.14-9.34-2.55-19.55-5.66-28.96-7.5-45.82-8.96-63-1.56-69.97-56.71-5.11-40.43-3.52-82.08-2.96-122.68.36-26.18-.85-54.68,1.98-80.56.41-3.75,4.87-14.42-4.49-10.25-3.26,1.45-12.47,9.3-15.78,12.06-39.29,32.79-86.26,91.33-118,132.48-2.85,3.7-11.3,18.52-14.32,19.18-10.43-1.77-15.6-9.8-20.12-18.39-23.64-44.92-37.56-94.86-58.23-140.43-11.83-26.07-24.43-36.26-52.92-23.23-14.48,6.62-29.11,16.35-43.48,23.7-36.26,18.55-72.12,33.57-109.12,50.19-8.17,3.67-62.25,32.06-66.52,28ZM616.29,419.3l-11.98-141.07-34.08,130.5,46.07,10.57ZM915.71,756.16l-6.1-.14-149.35-438.44,20.15,509.59c6.26-2.03,7.61-16.58,12.18-17.05,1.39-.14,2.81.81,4.11.28s13.45-12.09,16.42-14.34c18.7-14.15,40.12-24.63,62.52-31.53l40.08-8.37ZM554.62,844.67c-8.98,1.65-12.92,12.86-14.81,20.7-4.67,19.36-5.9,77.45,4,94.27,9.22,15.66,31.74,9.38,41.21-2.99,19.92-26.01,16.91-120.64-30.4-111.98ZM907.86,854.32c-47.16,2.58-39.26,72.71-35.19,104.67,4.94,38.75,24.11,130.81,65.42,145.71,36.53,13.18,54.73-25.68,58.23-55.37,5.32-45.05-23.99-145.08-55.16-178.99-9.03-9.82-19.52-16.78-33.31-16.02Z"/>
      <path d="M1160.25,762.19c20.73-.56,43.13,2.72,63.97,3.6,35.79,1.53,68.42-2.13,103.73-2.88,47.79-1.01,91.77,10.76,117.34,54.37,26.09,44.51,25.62,124.06.35,168.88-31.18,55.31-96.29,62.26-153.99,62.9-3.66,1.27-6.03,4.38-7.58,7.77-5.55,12.12-3.42,38.51,1.12,51.07,10.2,28.18,45.55,38.39,36.05,75.36-8.29,32.27-43.43,24.49-68.14,23.91-22.37-.52-43.93-.48-66.25.05-24.63.58-59.17,8.26-67.94-23.25-11.94-42.94,39.49-52.08,39.66-92.36l-.16-221.62c-3.23-32.26-34.4-39.48-37.21-63.56-3.29-28.2,11.27-43.51,39.05-44.25ZM1295.5,844.67c-8.98,1.65-12.92,12.86-14.81,20.7-4.67,19.36-5.9,77.45,4,94.27,9.22,15.66,31.74,9.38,41.21-2.99,19.92-26.01,16.91-120.64-30.4-111.98Z"/>
      <path d="M1039.52,228.32v53.74c-18.52,1.96-34.06,21.8-41.74,37.44-31.65,64.52-38.05,168.78-9.58,235.08,17.54,40.84,50.68,62.19,89.71,29.31,27.28-22.98,38.3-55.01,23.02-88.78h-66.22v-46.07h103.65c8.34,47.73,10.24,96.94,4.56,145.16-33.15,58.95-100.38,122.6-160.52,52.55s-62.59-226.33-38.37-310.95c13.35-46.66,40.71-102.99,95.49-107.49Z"/>
      <path d="M387.88,257.12l.05,356.57c-1.38,31.12-12.1,75.31-33.66,98.78-20.26,22.05-71.78,9.82-91.08-8.66-1.12-1.07-2.36-1.58-1.83-3.54l18.09-47.75c1.7-1.53,8.3,8.63,9.69,9.98,7.11,6.88,18.02,12.45,28.13,11.05,22.66-3.14,25.25-49.12,26.51-66.57l-.02-305.2c12.74-15.37,28.63-28.35,41.93-43.42.57-.65-.05-1.84,2.19-1.22Z"/>
      <path d="M401.32,479.76c10.57,6.15,17.9,13.69,31.18,12.46,21.35-1.97,25.84-33.69,28.2-50.49,2.47-87.81.39-175.87,1.11-263.77,12.91-16.26,28.37-30.54,42.7-45.6l1.43,2.38c-3.39,98.62,4.5,200.25.05,298.52-1.27,27.9-8.61,59.95-24.01,83.47-19.33,29.52-51.83,45.1-80.64,17.25v-54.22Z"/>
    </g>
  </g>
</svg>