<?xml version="1.0" encoding="UTF-8"?>
<svg id="Laag_2" data-name="Laag 2" xmlns="http://www.w3.org/2000/svg" viewBox="0 0 1612.83 1612.83">
  <defs>
    <style>
      .cls-1 {
        fill: #779e6a;
      }

      .cls-2 {
        fill: #799f6b;
      }

      .cls-3 {
        fill: #789e6a;
      }

      .cls-4 {
        fill: #f3aab9;
      }

      .cls-5 {
        fill: #f3e2df;
      }

      .cls-6 {
        fill: #8da2ba;
      }
    </style>
  </defs>
  <g id="iteration_2" data-name="iteration 2">
    <path class="cls-4" d="M97.63.55l1414.63-.55c52.3,7.19,94.44,49.74,100.57,102.33v1408.18c-6.15,52.59-48.25,95.11-100.57,102.33H102.32C49.1,1606.42,6.22,1563.74,0,1510.5V102.33C5.85,50.65,46.62,9.12,97.63.55Z"/>
    <path class="cls-5" d="M1187.73,108.51l1.86,27.17c-.46,262.65.12,525.3,1.76,787.97-1.63,187.09-2.76,374.05-3.39,560.89l-1.98,19.77c-237.85-.24-475.8.33-713.65,0-58.64,5.34-118.05,5.67-176.66,0-30.58-.17-77.47,4.13-105.33-3.99-42.43-12.38-75-51.56-81.62-95.04l-.27-1194.51c5.37-51.6,46.15-93.89,97.15-102.25h982.13Z"/>
    <path class="cls-5" d="M1280.43,1504.32l-2.02-18.5c-1.17-391.29-.29-784.5,2.64-1179.63-1.81-65.96-1.44-131.85,1.13-197.68h125.05c49.83,8.26,88.79,47.43,96.91,97.26l.26,1196.3c-5.03,52.28-47.83,94.22-98.92,102.24h-125.05Z"/>
    <path class="cls-6" d="M1187.73,108.51c.05-2.89-.86-15.49,1.01-15.77l93.46.02c.07,5.23-.11,10.52,0,15.75,6.39,329.13-.73,660.03-1.83,989.05-.45,135.48,2.59,271.35.08,406.76-.05,2.89.86,15.49-1.01,15.77l-93.46-.02c-.07-5.23.11-10.52,0-15.75-3.58-184.17,1.45-369.51,1.83-553.52.59-280.52-5.28-561.91-.08-842.29Z"/>
    <path class="cls-3" d="M472.33,1504.32v85.7c-3.3,3.46-77.23-34.29-88.34-36-29.39,11.29-57.55,26.17-87.42,36.03l-.9-85.73c58.85.32,117.81-.08,176.66,0Z"/>
    <path class="cls-1" d="M739.32,437.98c25.75,25.01,4.34,68.79-30.86,64.08l.2,52.3c44.73,5.34,84.14,24.38,121.12,48.9,4.47-5.17,35.43-32.65,35.99-35.83.33-1.87-6.7-8.5-8.43-12.2-15.98-34.2,23.54-68.61,54.9-46.15,7.97,5.71,56.64,54,61.07,61.36,24.07,39.94-26.07,78.22-57.57,45.35-4.26,4.86-37.74,35.4-36.92,38.54,25.86,34.9,42.97,75.47,48.37,118.77l52.4.1c-1.94-28.65,24.4-50.29,51.93-38.84,9.7,4.04,20.26,16.73,21.56,27.41,2.03,16.62,2.34,76.69-.15,92.64-1.13,7.21-8.21,16.68-14.04,20.95-26.76,19.62-61.64-1.78-59.31-33.97l-52.4.1c-5.3,43.59-23.84,84.02-48.93,119.49,5.81,4.59,31.99,35.05,35.99,35.83,3.6.71,7.46-4.9,10.67-6.3,33.56-14.76,66.49,14.86,51.48,47.98-3.72,8.21-54.34,59.42-63.42,66.02-37.63,27.32-80.76-23.99-47.38-57.59-10.81-8.51-23.06-27.03-33.74-34.21-1.81-1.22-2.41-1.99-4.89-1.38-3.15.77-19.94,13.92-25.26,16.9-29.53,16.51-59.73,26.05-93.01,32.06l-.04,50.31c25.3,1.63,44.6,15.68,41.79,43.05-1.35,13.11-13.35,28.99-27.07,30.64-17.56,2.11-81.1,2.49-97.88-.15-15.74-2.48-26.67-21.91-26.18-36.86.77-23.39,19.18-34.93,40.69-36.74-.57-7.48,2.28-48.96-1.4-51.46-1.35-.92-26.47-4.97-31.97-6.51-20.99-5.89-41.34-14.67-60.27-25.44-4.86-2.76-22.6-16.64-25.58-15.86-5.48,7.08-34.34,27.84-36.02,34.28-1.1,4.21,5.52,8,7.71,12.75,16.07,34.89-24.58,68.83-54.24,47.24-10.01-7.29-53.03-50.32-60.35-60.34-28.21-38.58,24.83-80.92,56.84-46.38l36.93-38.55c-25.67-34.57-44.16-75.58-48.31-118.83l-52.21.22c-2.04,17.11-10.87,34.66-29.52,37.83-25.28,4.29-43.45-10.48-45.92-35.46-1.63-16.52-1.95-77.69,3.68-90.74,16.88-39.13,74.73-21.95,71.53,19.9l52.46.02c4.01-43.58,22.56-85.29,48.66-119.84l-37.29-37.56c-34.73,34.65-86.04-9.77-55.06-49.84,8.99-11.63,42.69-45.36,54.33-54.11,31.94-24,71.61,2.57,60.21,39.23-1.29,4.15-9.69,15.34-9.52,16.35.45,2.56,32.19,32.55,37.18,35.85,34.76-25.77,75.25-42.5,118.18-48.91l.2-52.3c-48.13,6.1-55.7-68.48-9.63-73.46,20.32-2.2,65.17-1.93,85.79-.07,8.04.73,17.1,3.81,22.91,9.45Z"/>
    <path class="cls-5" d="M561.17,675.75c123.73-10.52,131.79,177.58,11.78,181.48-116.35,3.78-126.28-171.74-11.78-181.48Z"/>
    <path class="cls-5" d="M781.47,798.09c78.07-11.21,116.51,83.02,56.31,128.03-43.07,32.2-106.85,4.02-113.09-49.35-4.13-35.32,20.58-73.48,56.78-78.68Z"/>
    <path class="cls-5" d="M678.27,938.02c69.59-11.83,57.34,97.71-4.75,75.63-37.02-13.17-32.27-69.34,4.75-75.63Z"/>
    <path class="cls-5" d="M797.06,668.84c31.76,29.5-7.66,82.68-45.46,58.58-45.91-29.27,5.63-95.57,45.46-58.58Z"/>
    <path class="cls-3" d="M615.14,719.57c60.4,60.41-31.19,152.56-92.15,93.03-61.09-59.65,31.54-153.65,92.15-93.03Z"/>
    <path class="cls-3" d="M786.75,822.61c67.77-9.85,73,89.91,9.78,92.12-56.42,1.97-63.41-84.33-9.78-92.12Z"/>
    <path class="cls-2" d="M697.48,966.08c12.21,12.15-3.09,33.05-17.92,22.27-17.06-12.4,5.2-34.93,17.92-22.27Z"/>
    <path class="cls-2" d="M779.76,704.56c-10.28,10.36-29.56-7.12-17.02-17.9,12.71-10.92,26.66,8.18,17.02,17.9Z"/>
  </g>
</svg>