<?xml version="1.0" encoding="UTF-8"?>
<svg id="Laag_6" data-name="Laag 6" xmlns="http://www.w3.org/2000/svg" viewBox="0 0 32 32">
  <defs>
    <style>
      .cls-1 {
        fill: #fff;
      }
    </style>
  </defs>
  <path class="cls-1" d="M9.5,3.65s.41.31.5.4c.2.22.39.59.46.88.02.09-.01.24.03.31.04.06.11.05.16.09.05.05.1.44.11.53.03.36-.02,1.44-.28,1.69-.31.29-1.14.31-1.56.31-.04.7.38,1.21.8,1.71,1.17,1.39,13.1,13.23,14.17,14.71.91,1.24,1.38,2.55,3.18,2.67l.77-.04c-.31.24-.85.28-1.23.25-.92-.08-1.71-.7-2.32-1.36-.11.13-.18.29-.28.43-.17.23-.46.49-.57.73-.16.34.25.68.06,1.04-.12.23-.28.29-.44.44-.18.17-.94.91-1.14.91-.12,0-.39-.27-.46-.36-.05-.06-.32-.59-.32-.64,0-.12.21-.36.34-.38.24-.02.24.64.63.1.36-.5,0-.63-.28-1.01-.35-.49-.53-.87-.55-1.48,0-.16.07-.39-.02-.5-.13-.14-.5-.38-.68-.5-1.16-.83-13.03-12.07-14.03-13.11h-.08c-.33.29-.73.56-1.14.71-.47.17-.67.02-.98-.38-.17-.22-.06-.23-.09-.38-.02-.16-.16-.12.05-.35.32-.34.42-.04.65.2.22.11.64-.68.76-.83-.57-1.01-.62-1.85.11-2.79.39-.51.86-.97,1.26-1.47.02-.03-.1-.26-.1-.34s.05-.15.05-.23c0-.06-.04-.12-.01-.21.06-.21.42-.53.57-.71-.03-.05-.08.02-.12.04-.21.13-.59.45-.86.27-.46-.29-.21-.9-.01-1.29.17-.34.61-1.01,1-1.06.36-.05,1.69.53,1.9.81.08.11.01.16.02.19Z"/>
  <path class="cls-1" d="M22.5,3.65s-.41.31-.5.4c-.2.22-.39.59-.46.88-.02.09.01.24-.03.31-.04.06-.11.05-.16.09-.05.05-.1.44-.11.53-.03.36.02,1.44.28,1.69.31.29,1.14.31,1.56.31.04.7-.38,1.21-.8,1.71-1.17,1.39-13.1,13.23-14.17,14.71-.91,1.24-1.38,2.55-3.18,2.67l-.77-.04c.31.24.85.28,1.23.25.92-.08,1.71-.7,2.32-1.36.11.13.18.29.28.43.17.23.46.49.57.73.16.34-.25.68-.06,1.04.12.23.28.29.44.44.18.17.94.91,1.14.91.12,0,.39-.27.46-.36.05-.06.32-.59.32-.64,0-.12-.21-.36-.34-.38-.24-.02-.24.64-.63.1-.36-.5,0-.63.28-1.01.35-.49.53-.87.55-1.48,0-.16-.07-.39.02-.5.13-.14.5-.38.68-.5,1.16-.83,13.03-12.07,14.03-13.11h.08c.33.29.73.56,1.14.71.47.17.67.02.98-.38.17-.22.06-.23.09-.38.02-.16.16-.12-.05-.35-.32-.34-.42-.04-.65.2-.22.11-.64-.68-.76-.83.57-1.01.62-1.85-.11-2.79-.39-.51-.86-.97-1.26-1.47-.02-.03.1-.26.1-.34s-.05-.15-.05-.23c0-.06.04-.12.01-.21-.06-.21-.42-.53-.57-.71.03-.05.08.02.12.04.21.13.59.45.86.27.46-.29.21-.9.01-1.29-.17-.34-.61-1.01-1-1.06-.36-.05-1.69.53-1.9.81-.08.11-.01.16-.02.19Z"/>
</svg>