<?xml version="1.0" encoding="UTF-8"?>
<svg id="Laag_2" data-name="Laag 2" xmlns="http://www.w3.org/2000/svg" viewBox="0 0 2012.97 612.51">
  <defs>
    <style>
      .cls-1 {
        fill: #fff;
      }

      .cls-2 {
        fill: none;
      }
    </style>
  </defs>
  <g id="Laag_9" data-name="Laag 9">
    <g>
      <path class="cls-2" d="M1280.32,431.35c5.44-3.15,27.55-7.78,34.58-8.79,68.99-9.91,136.9-1.34,206.42-3.98,6.6-.25,13.28.27,19.87.03.34-1.48-.51-1.89-1.35-2.79-4.75-5.12-15.83-13.88-21.7-18.91-49.11-42.03-118.73-87.67-186.62-77.73-51.68,7.57-94.12,32.03-121.44,77-3.49,5.74-3.45,6.51-7.56,11.82-9.01,11.63-6.59,18.79-3.86,31.97,3.41,2.03,8.35,3.19,15.09,3.26,17.49.17,41.01-4.87,64.46-10.02.25-.53.92-1.17,2.1-1.86ZM1224.21,404.76c.67,1.91,17.34,12.81,15.22,14.77-5.32-1.06-12.05-4.8-15.16-9.29-1.25-1.8-3.96-8.03-.06-5.48ZM1255.61,426.02c-14.55,1.98-30.16-.61-43.85,5.51-.54-5.46,9.44-6.67,13.49-7.27,11.09-1.66,22.46-.96,33.57-.1-.37,1.73-1.82,1.67-3.21,1.86Z"/>
      <path class="cls-2" d="M1203.46,400.22c2.35-3.29,4.6-6.65,6.84-10.04-2.46,3.37-4.75,6.73-6.84,10.04Z"/>
      <path class="cls-2" d="M729.32,413.14c5.58-2.25,12.77-2.47,17.5-6.5.1-1.36-12.68-16.31-14.71-18.5-.69-.74-1.39-1.47-2.09-2.2l-5.81-5.82c-65.01-62.53-171.2-80.48-252.05-38.74-16.23,8.38-31.66,20.42-48.65,26.85l-2.76-.48c-5.01,4.61-9.74,9.5-14.12,14.67,22.46-1.45,41.39,13.84,62.39,16.15,15.75,1.73,33.15.66,50.34.02-12.6-.28-25.21-.5-37.83-.73l-1.37-1.84c3.01.42,5.8-.78,8.73-.97,16.42-1.04,33.45.92,49.72,1.3,37.01.88,73.03,1.97,109.85,6.24,19.29,2.24,38.46,6.15,57.79,8.2,0,.85-.92,1.3-1.93,1.54,7.7.6,15.4,1.16,23.11,1.64.18-.63.87-.42,1.9-.84Z"/>
      <path class="cls-2" d="M738.74,414.64l1.3-1.29c-1.77.41-3.6.76-5.33,1.05,1.34.08,2.68.16,4.03.23Z"/>
      <path class="cls-2" d="M575.11,400.48c27.15,2.2,54.29,4.99,81.43,7.6-6.67-1.13-13.14-2.19-19.05-2.83-20.77-2.27-41.56-3.75-62.38-4.77Z"/>
      <path class="cls-2" d="M1304.57,319.48c-4.09.78-8.07,1.68-11.93,2.71-1.16.73-2.29,1.47-3.37,2.24,5.06-1.77,10.16-3.44,15.3-4.95Z"/>
      <path d="M118.77,539.44l3.2,73.07h14.6c-2.86-74.97-7.08-115.33,3.79-196.37,2.37-17.68,4.99-101.43,22.73-106.17,7.94-2.12,5.79,3.58,7.84,8.06,20.92,45.58,24.28,111.42,36.35,161.11,12.45,51.22,28.68,95.92,51.42,133.37h29.49c-36.98-45.33-61.82-102.88-66.93-171.51-14.18-190.46,119.08-239.27,284.02-247.71,116.05-5.94,300.71,35.79,326.29,168.83,5.04,26.21,10.09,96.87.45,120.09-.5,1.21-6.37.7-6.26,2.67.97,17.54,9.33,28.96-20.55,18.38-4.06,15.9,19.24,7.13,20.07,8.06l-8.42,35.82-19.76.43-3.97-16.12-.08,20.13h16.17c1.79,10.91-3.08,17.88-7.37,26.86-5.77,12.1-12.22,23.45-19.28,34.07h28.51c12.85-23.54,23.46-63.22,34.14-79.27,9.64-14.49,32.25-17.8,40.37-44.5,4.39-14.43.79-44.8-20.02-41.81.78,6.88,9.07,4.66,13.18,12.9,11.72,23.5-11.69,54.78-33.29,63.55-2.28-2.79,16.18-59.01,17.62-68.14,3.9-24.76-4.21-80.22,14.6-94.87,30.2-23.53,124.45-11.71,161.82-4.9,59.81,10.9,68.47,28.56,55.16,89.02-2.29,10.39-9.29,17.52-10.89,25.49-4.58,22.81,15.02,50.27,21.47,73.39,6.52,23.36,8.62,45.5,16.07,69.14h28.33c-4.06-10.59-7.52-21.52-10.35-32.76l12.09-4c-20.55,6.36-26.75-39.45-24.26-49.77.73-3.04,8.3-2.67,8.11-4.45-2.23-21.1-13.83-38.94-12.12-68.35,11.66-199.71,235.84-229.97,394.74-201.65,166.89,29.74,265.55,99.15,224.85,285.42-5.86,26.84-14.21,52.12-25.02,75.56h19.45c24.56-61.63,38.23-127.44,67.05-187.19,11.46-23.76,23.99-51.91,51.72-58.95l-4.9,246.14h4.94v-73.03l8.01,38.29c-.34,11.86.12,23.4.94,34.74h148.06V0h-487.14l44.25,76.49c-22.62-20.65-38.99-49.21-52.3-76.49h-16.1l44.28,88.53c-82.83-33.97-174.91-37.39-263.2-27.64-29.18,3.22-71.13,9.82-99.14,17.61-16.92,4.7-31.64,6.86-42.28,22.14l-5.98-8.02c-1.02,20.29-10.35,40.15,9.17,55.13,21.65,16.62,65.5.82,90.09-2.15,103.41-12.49,248.67-24.86,348.51,8.46,19.41,6.48,25.77,26.98,39.22,41.3,23.93,25.46,50.54,47.29,76.6,70.31-150.09-45.41-369.2-85.54-510.97-1.65-17.31,10.25-57.59,48.9-64.8,51.96-29.36,12.45-119.76,5.14-154.92,2.05-20.72-1.82-101.06-10.25-115.61-17.03-9.71-4.53-33.35-36.38-45.56-47.26-104.26-92.85-278.27-92.4-409.97-76.03-66.27,8.24-130.04,27.4-191.8,51.73C242.84,156.04,276,79.76,297.92,0H0v612.51h108.95c.63-24.5,3.23-48.88,9.82-73.07ZM1880.12,414.67h4.03v161.04h-4.03v-161.04ZM1670.72,227.51c-6.86-5.93-59.25-55.73-52.27-62.43,34.65.45,51.08,32.51,74.56,52.21,44.04,36.95,96.32,74.65,150.84,92.75.94,7.27-8.74,3.65-13.04,2.98-54.54-8.45-118.6-49.65-160.1-85.51ZM124.75,450.88l-7.73-66.14c2.96-11.39,8.77-25,19.82-30.45l-12.09,96.59ZM265.67,56.38c-2.34,14.58-8.69,30.4-14.11,44.21-10.14,25.85-41.57,102.07-56.46,120.66-12.06,15.06-21.38,2.08-38.08,4.18l108.64-169.05ZM112.73,281.79l27.6,4.63c2.9,4.66.5,25.03-1.3,31.78l-26.25,40.08c-9.76-25.43-.26-50.75-.05-76.49ZM101.14,540.99c-4.11-41.11-4.33-90.85-.12-132,.32-3.11,2.81-14.59,5.67-14.49,14.03,57.17,11.41,115.58,1.97,173.14-5.35-2.05-6.97-21.16-7.52-26.65Z"/>
      <path class="cls-1" d="M1742.72,536.95c40.7-186.27-57.96-255.67-224.85-285.42-158.89-28.32-383.08,1.94-394.74,201.65-1.72,29.41,9.89,47.25,12.12,68.35.19,1.78-7.38,1.41-8.11,4.45-2.48,10.31,3.71,56.13,24.26,49.77l-12.09,4c2.82,11.24,6.29,22.17,10.35,32.76h568.05c10.81-23.44,19.16-48.71,25.02-75.56ZM1280.25,454.93c-6.54-4.94.06-7.31,5.97-8.06,15.07-1.92,33.03,1.53,48.58-.18l82.34,8.24h-136.88ZM1565.5,362.46c-16.35-9.75-31.24-21.27-48.27-30.18-55.17-28.88-139.32-41.74-198.9-21.69-8.49,2.85-17.92,6.75-25.69,11.61,3.86-1.03,7.85-1.93,11.93-2.71,13.8-4.07,27.9-7.04,42.38-7.96,54.55-3.45,116.44,22.87,158.27,56.75,14.84,12.02,29.14,25.98,43.34,38.8,5.54,5,12.36,7.95,15.7,15.21-4.01.43-8.51,1.54-12.47,1.85-55.92,4.29-112.15.01-167.98-.88-34.83-.55-68.11,4.71-102.25,11.25-2.48.48-3.89-.17-3.35-1.31-23.45,5.16-46.97,10.19-64.46,10.02-6.74-.07-11.67-1.23-15.09-3.26.05.26.11.53.16.8-8.6-3.6-10.01-11.97-7.86-20.33,1.58-6.15,5.04-10.32,8.8-15.2,1.27-1.64,2.49-3.32,3.69-5.01,2.09-3.31,4.38-6.67,6.84-10.04,6.85-10.35,13.59-20.89,22.66-30.22,60.99-62.7,133.62-75.22,217.84-58.17,50,10.12,98.33,33.81,133.78,70.65-6.31-2.4-13.16-6.46-19.08-9.99Z"/>
      <path class="cls-1" d="M397.13,177.71c131.7-16.37,305.71-16.82,409.97,76.03,12.21,10.87,35.85,42.72,45.56,47.26,14.54,6.78,94.89,15.21,115.61,17.03,35.16,3.09,125.56,10.4,154.92-2.05,7.21-3.06,47.48-41.71,64.8-51.96,141.77-83.89,360.88-43.76,510.97,1.65-26.05-23.02-52.67-44.85-76.6-70.31-13.45-14.31-19.81-34.82-39.22-41.3-99.85-33.32-245.1-20.95-348.51-8.46-24.6,2.97-68.44,18.76-90.09,2.15-19.52-14.98-10.19-34.84-9.17-55.13l5.98,8.02c10.65-15.28,25.36-17.43,42.28-22.14,28.01-7.79,69.97-14.39,99.14-17.61,88.29-9.75,180.37-6.33,263.2,27.64L1501.68,0H297.92c-21.92,79.76-55.08,156.04-92.6,229.44,61.77-24.33,125.53-43.49,191.8-51.73ZM326.42,94.93c97.1-59.84,228.1-71.68,339.37-58.2,40.6,4.92,95.43,13.46,123.25,43.79l4.02-16.07c6.22,18.56,12,42.85,8.16,62.44-.39,2-15.53,20.8-16.74,21.42-2.13,1.1-10.94-4.71-15.51-3.33l8.01,7.98c-131.64-35.19-263.02-45.37-396.22-11.73-42.16,10.65-81.35,28.45-123.08,39.93-4.22-35.89,40.96-69.09,68.74-86.22Z"/>
      <path class="cls-1" d="M207.29,479.13c-12.08-49.69-15.43-115.53-36.35-161.11-2.05-4.47.1-10.18-7.84-8.06-17.74,4.73-20.36,88.49-22.73,106.17-10.87,81.04-6.65,121.39-3.79,196.37h122.14c-22.74-37.45-38.98-82.15-51.42-133.37Z"/>
      <path class="cls-1" d="M1105.25,543.37c-6.45-23.12-26.04-50.57-21.47-73.39,1.6-7.97,8.6-15.1,10.89-25.49,13.32-60.47,4.66-78.12-55.16-89.02-37.37-6.81-131.62-18.63-161.82,4.9-18.8,14.65-10.69,70.11-14.6,94.87-1.44,9.13-19.89,65.34-17.62,68.14,21.6-8.77,45.01-40.05,33.29-63.55-4.11-8.24-12.4-6.02-13.18-12.9,20.81-2.99,24.41,27.38,20.02,41.81-8.12,26.7-30.73,30.02-40.37,44.5-10.69,16.05-21.29,55.73-34.14,79.27h310.22c-7.44-23.64-9.55-45.78-16.07-69.14Z"/>
      <path class="cls-1" d="M1855.92,366.36c-27.73,7.04-40.26,35.2-51.72,58.95-28.82,59.76-42.49,125.56-67.05,187.19h113.87l4.9-246.14Z"/>
      <path class="cls-1" d="M118.77,539.44c-6.59,24.19-9.19,48.57-9.82,73.07h13.02l-3.2-73.07Z"/>
      <path class="cls-1" d="M1570.08,76.49L1525.83,0h-8.05c13.3,27.29,29.68,55.84,52.3,76.49Z"/>
      <path class="cls-1" d="M801.88,578.44c4.28-8.98,9.16-15.95,7.37-26.87h-16.17s.08-20.12.08-20.12l3.97,16.12,19.76-.43,8.42-35.82c-.83-.93-24.12,7.84-20.07-8.06,29.88,10.58,21.52-.84,20.55-18.38-.11-1.97,5.76-1.46,6.26-2.67,9.63-23.21,4.58-93.87-.45-120.09-25.58-133.04-210.23-174.77-326.29-168.83-164.95,8.44-298.21,57.25-284.02,247.71,5.11,68.63,29.95,126.18,66.93,171.51h494.39c7.06-10.62,13.51-21.97,19.28-34.07ZM665.98,434.67c-7.97.86-15.46-.74-22.91-.84-41.78-.55-83.53-1.01-125.09-5.04-.02-.94,4.01-1.37,5.04-1.43,39.42-2.29,82.28,1.6,121.81,2.85l28.18.89c1.78,2.45-5.87,3.44-7.04,3.56ZM740.04,413.35l-1.3,1.29c-1.34-.07-2.68-.16-4.03-.23-3.01.51-5.7.86-7.24,1-.13-.72-.14-1.15-.06-1.42-7.71-.48-15.41-1.04-23.11-1.64-.83.2-1.72.26-2.21.3-13.31,1.06-29.99-1.93-45.56-4.55-27.15-2.62-54.28-5.41-81.43-7.6-18.57-.91-37.16-1.47-55.76-1.88-17.19.64-34.59,1.72-50.34-.02-21-2.31-39.93-17.6-62.39-16.15,4.39-5.18,9.12-10.06,14.12-14.67l-12.57-2.21c.62-5.74,6.83-9.88,11.15-13.3,61.74-48.97,148.48-59.91,222.11-33.1,8.96,3.26,17.31,7.62,26.05,11.32-14.46-12.13-32.98-19.83-50.97-25.16-38.2-11.32-83.41-14.36-122.55-6.71-40.7,7.95-78.19,25.05-112.09,48.5-.68.15-.63-.96-.45-1.37,1.21-2.78,17.2-13.92,20.74-16.19,77.33-49.64,200.25-56.8,274.98.98,18.54,14.34,56.31,48.25,68.25,67.43,1.38,2.21,5.84,9.54,4.32,11.51-1.21,1.57-5.26,2.9-9.67,3.9Z"/>
      <path class="cls-1" d="M724.21,380.12l5.81,5.82c-1.9-1.98-3.84-3.92-5.81-5.82Z"/>
      <path class="cls-1" d="M1843.86,310.04c-54.52-18.09-106.81-55.79-150.84-92.75-23.48-19.7-39.92-51.76-74.56-52.21-6.98,6.7,45.41,56.5,52.27,62.43,41.5,35.87,105.56,77.07,160.1,85.51,4.3.67,13.98,4.29,13.04-2.98Z"/>
      <path class="cls-1" d="M195.11,221.25c14.89-18.59,46.32-94.81,56.46-120.66,5.42-13.81,11.76-29.63,14.11-44.21l-108.64,169.05c16.7-2.1,26.02,10.88,38.08-4.18Z"/>
      <path class="cls-1" d="M1863.97,577.77l-8.01-38.29v73.03h8.95c-.83-11.34-1.29-22.88-.94-34.74Z"/>
      <path class="cls-1" d="M106.69,394.5c-2.85-.1-5.35,11.38-5.67,14.49-4.21,41.15-3.98,90.89.12,132,.55,5.49,2.17,24.6,7.52,26.65,9.43-57.56,12.06-115.97-1.97-173.14Z"/>
      <path class="cls-1" d="M139.03,318.2c1.81-6.74,4.21-27.12,1.3-31.78l-27.6-4.63c-.21,25.73-9.71,51.06.05,76.49l26.25-40.08Z"/>
      <path class="cls-1" d="M117.02,384.73l7.73,66.14,12.09-96.59c-11.05,5.45-16.86,19.06-19.82,30.45Z"/>
      <rect class="cls-1" x="1880.12" y="414.67" width="4.03" height="161.04"/>
      <path d="M1286.22,446.87c-5.91.75-12.5,3.12-5.97,8.06h136.88l-82.34-8.24c-15.54,1.71-33.5-1.74-48.58.18Z"/>
      <path d="M257.68,181.15c41.73-11.48,80.93-29.28,123.08-39.93,133.2-33.64,264.58-23.47,396.22,11.73l-8.01-7.98c4.56-1.38,13.38,4.43,15.51,3.33,1.21-.62,16.35-19.42,16.74-21.42,3.84-19.58-1.94-43.88-8.16-62.44l-4.02,16.07c-27.82-30.33-82.65-38.87-123.25-43.79-111.27-13.48-242.27-1.64-339.37,58.2-27.78,17.12-72.96,50.33-68.74,86.22Z"/>
      <path d="M1210.29,390.19c-2.24,3.38-4.49,6.75-6.84,10.04-10.96,17.38-15.87,33.15-4.79,39.75-2.73-13.18-5.15-20.34,3.86-31.97,4.11-5.31,4.08-6.08,7.56-11.82,27.32-44.97,69.76-69.43,121.44-77,67.89-9.94,137.51,35.7,186.62,77.73,5.87,5.03,16.95,13.79,21.7,18.91.84.91,1.69,1.31,1.35,2.79-6.6.23-13.27-.28-19.87-.03-69.52,2.64-137.44-5.93-206.42,3.98-7.03,1.01-29.14,5.64-34.58,8.79-1.18.69-1.85,1.33-2.1,1.86,18.7-4.11,37.36-8.3,52.87-9.97,39.52-4.27,70.6-.55,108.02-.34,36.94.21,73.96-.48,110.86-.19,1.83-7-2.93-8.05-6-12.08-27.34-35.92-99.74-79.52-143.65-89.85-25.23-5.93-63.44-7.42-95.74-1.29-5.14,1.52-10.24,3.18-15.3,4.95,1.08-.77,2.2-1.52,3.37-2.24-12.57,3.34-23.75,8.04-32.17,14.34-8.78,6.56-33.12,30.26-50.17,53.66Z"/>
      <path d="M1400.31,320.78c43.92,10.33,116.32,53.93,143.65,89.85,3.07,4.03,7.83,5.08,6,12.08-36.9-.29-73.92.39-110.86.19-37.43-.21-68.5-3.93-108.02.34-15.51,1.68-34.17,5.86-52.87,9.97-.53,1.14.87,1.78,3.35,1.31,34.14-6.54,67.42-11.8,102.25-11.25,55.83.89,112.07,5.16,167.98.88,3.96-.3,8.46-1.41,12.47-1.85-3.34-7.26-10.16-10.21-15.7-15.21-14.2-12.83-28.5-26.79-43.34-38.8-41.84-33.88-103.72-60.21-158.27-56.75-14.49.92-28.58,3.89-42.38,7.96,32.3-6.13,70.51-4.64,95.74,1.29Z"/>
      <path d="M1450.8,301.79c-84.22-17.04-156.86-4.53-217.84,58.17-9.07,9.33-15.82,19.88-22.66,30.22,17.05-23.4,41.39-47.1,50.17-53.66,8.43-6.3,19.6-10.99,32.17-14.34,7.77-4.86,17.2-8.76,25.69-11.61,59.58-20.05,143.73-7.19,198.9,21.69,17.03,8.91,31.92,20.43,48.27,30.18,5.91,3.53,12.76,7.59,19.08,9.99-35.45-36.84-83.78-60.53-133.78-70.65Z"/>
      <path d="M1203.46,400.22c-1.2,1.69-2.43,3.36-3.69,5.01-3.76,4.88-7.22,9.05-8.8,15.2-2.15,8.36-.74,16.74,7.86,20.33-.05-.27-.11-.53-.16-.8-11.08-6.59-6.17-22.37,4.79-39.75Z"/>
      <path d="M1225.25,424.26c-4.04.6-14.02,1.81-13.49,7.27,13.69-6.13,29.3-3.53,43.85-5.51,1.38-.19,2.84-.13,3.21-1.86-11.11-.86-22.48-1.56-33.57.1Z"/>
      <path d="M1239.43,419.53c2.12-1.96-14.55-12.86-15.22-14.77-3.89-2.55-1.19,3.68.06,5.48,3.11,4.49,9.84,8.23,15.16,9.29Z"/>
      <path d="M472.15,341.39c80.86-41.75,187.05-23.8,252.05,38.74l-49.88-49.98-2.36,7.62c-75.74-41.3-187.19-28.95-251.22,29.99l2.76.48c16.99-6.43,32.41-18.47,48.65-26.85Z"/>
      <path d="M730.02,385.95c.7.73,1.4,1.46,2.09,2.2,2.03,2.19,14.81,17.14,14.71,18.5-4.73,4.03-11.91,4.25-17.5,6.5-1.03.41-1.72.21-1.9.84,2.43.15,4.87.29,7.3.43,1.73-.3,3.56-.65,5.33-1.05l8.72-8.62-18.74-18.78Z"/>
      <path d="M745.39,397.94c-11.94-19.19-49.71-53.1-68.25-67.43-74.74-57.78-197.66-50.62-274.98-.98-3.54,2.27-19.52,13.41-20.74,16.19-.18.41-.24,1.51.45,1.37,33.9-23.45,71.4-40.55,112.09-48.5,39.14-7.65,84.35-4.6,122.55,6.71,17.99,5.33,36.51,13.03,50.97,25.16-8.74-3.7-17.09-8.06-26.05-11.32-73.63-26.81-160.37-15.87-222.11,33.1-4.32,3.42-10.53,7.56-11.15,13.3l12.57,2.21c64.03-58.93,175.48-71.29,251.22-29.99l2.36-7.62,49.88,49.98c1.98,1.9,3.91,3.84,5.81,5.82l18.74,18.78-8.72,8.62c4.41-1.01,8.45-2.33,9.67-3.9,1.52-1.97-2.94-9.29-4.32-11.51Z"/>
      <path d="M727.48,415.4c1.54-.14,4.23-.48,7.24-1-2.43-.14-4.87-.27-7.3-.43-.08.27-.07.71.06,1.42Z"/>
      <path d="M706.24,410.8c-19.32-2.05-38.5-5.97-57.79-8.2-36.82-4.27-72.84-5.36-109.85-6.24-16.27-.39-33.3-2.35-49.72-1.3-2.93.19-5.72,1.39-8.73.97l1.37,1.84c12.62.23,25.23.45,37.83.73,10.26-.38,20.44-.61,30.15.01,8.54.55,17.08,1.18,25.61,1.87,20.82,1.02,41.61,2.5,62.38,4.77,5.91.65,12.38,1.71,19.05,2.83,15.91,1.53,31.83,3,47.76,4.25,1.01-.24,1.93-.69,1.93-1.54Z"/>
      <path d="M702.1,412.64c.49-.04,1.38-.1,2.21-.3-15.93-1.25-31.85-2.72-47.76-4.25,15.57,2.63,32.24,5.62,45.56,4.55Z"/>
      <path d="M519.35,398.6c18.6.42,37.19.97,55.76,1.88-8.53-.69-17.07-1.33-25.61-1.87-9.71-.62-19.89-.39-30.15-.01Z"/>
      <path d="M644.84,430.21c-39.54-1.25-82.4-5.14-121.81-2.85-1.03.06-5.07.49-5.04,1.43,41.56,4.03,83.31,4.49,125.09,5.04,7.46.1,14.95,1.7,22.91.84,1.17-.13,8.82-1.11,7.04-3.56l-28.18-.89Z"/>
    </g>
  </g>
</svg>